<svg xmlns="http://www.w3.org/2000/svg" viewBox="0 0 432 432"><defs><style>.a{fill:#f5f4f4;}</style></defs><path class="a" d="M288,0H144A144,144,0,0,0,0,144V288A144,144,0,0,0,144,432H288A144,144,0,0,0,432,288V144A144,144,0,0,0,288,0ZM180,234a6,6,0,0,1,6-6h30V192H186a6,6,0,0,1-6-6V162a6,6,0,0,1,6-6h30V120H186a6,6,0,0,1-6-6V90a6,6,0,0,1,6-6h30V54a6,6,0,0,1,6-6h24a6,6,0,0,1,6,6V78a6,6,0,0,1-6,6H216v36h30a6,6,0,0,1,6,6v24a6,6,0,0,1-6,6H216v36h30a6,6,0,0,1,6,6v24a6,6,0,0,1-6,6H216v30a6,6,0,0,1-6,6H186a6,6,0,0,1-6-6Zm78,144a6,6,0,0,1-6,6H180a6,6,0,0,1-6-6V282a6,6,0,0,1,6-6h72a6,6,0,0,1,6,6Z"/><rect class="a" x="186" y="330" width="60" height="42" rx="6"/></svg>