<svg xmlns="http://www.w3.org/2000/svg" viewBox="0 0 432 432">
    <defs>
        <style>.a{fill:#f5f4f4;}</style>
    </defs>
    <path class="a"
          d="M216,18a198.05,198.05,0,0,1,77.06,380.45A198.06,198.06,0,0,1,138.94,33.55,196.67,196.67,0,0,1,216,18m0-18C96.71,0,0,96.71,0,216S96.71,432,216,432s216-96.71,216-216S335.29,0,216,0Z"/>
    <path class="a"
          d="M148.05,183s-33.57-90.64-33.63-90.73c-.18-2.14,1-1.82,2.19-1.37l1.33.67a63.54,63.54,0,0,0,12.45,4.55c4.53,1,8.16,1.58,10.87,5.89,1.36,2.61,1.24,4.61.51,7.58-.2.88.67.25,1.06-.68,3.32-5.18,5.77-7.33,12.81-7.75,5.94-.35,10.85,1.67,13.43,7.89,1.83,5.17-.12,10-4.78,14a3.32,3.32,0,0,0-.73,3.07c.09,1,2.61,2.23,3.55,2.31s-6.35,9.28-13.38,2.84c-1.23-3-1.36-4.49-.84-8.29.27-2.58-4.51-3.81-5.66,1.43a20.79,20.79,0,0,0,8.47,20.54c5,2.57,11.77,2.22,15.75-1,2.15-1.86,3.13-2.64,3.5-6.9-2.12-1.15-3.6-2.22-4.27-4.73-1.31-4.86.8-9.06,5.66-10.36a7.52,7.52,0,0,1,9.42,7.46,10.54,10.54,0,0,1-2.84,6.43c2.12,6.18,6.22,6,10.68,6.2,6,.33,15-3.6,15.25-18.18-.14-2.63-2.25-11.87-6-12.07-2.43,0-3.08,2-2.11,3.76a6.23,6.23,0,0,1,1.39,4.62c-1.42,6.85-11.68,6.24-11.78,6,5.83-8.65-10.24-10.3-9.64-20.58.43-7.37,4.95-10,8.79-11.25a15,15,0,0,1,11.29,1.22,11.39,11.39,0,0,1,3,2.43c.14.18.72.36.43-.29-.1-.27-.32-.72-.73-1.63a11.34,11.34,0,0,1,1.31-10.63c2.57-3.44,6.3-7.1,8.07-11a38.26,38.26,0,0,1,2.24-4.93,1.79,1.79,0,0,1,.82-.44,1.83,1.83,0,0,1,.89.52,40.19,40.19,0,0,1,2.32,5c1.78,3.94,5.39,7.45,8,10.89A11.34,11.34,0,0,1,228.4,96c-.27.67-.75,1.25-.85,1.52-.19.45.19.43.36.22a13.79,13.79,0,0,1,3.2-2.25,15,15,0,0,1,11.29-1.22c3.84,1.22,8.36,3.88,8.79,11.25.6,10.28-15.47,11.93-9.64,20.58-.09.28-10.36.89-11.78-6a6.18,6.18,0,0,1,1.4-4.62c1-1.81.31-3.75-2.12-3.76-3.77.2-5.88,9.44-6,12.07.21,14.58,9.28,18.51,15.25,18.18,4.46-.18,8.56,0,10.69-6.2a10.5,10.5,0,0,1-2.85-6.43,7.53,7.53,0,0,1,9.42-7.46c4.86,1.3,7,5.5,5.66,10.36-.67,2.51-2.15,3.58-4.26,4.73.36,4.26,1.34,5,3.5,6.9,4,3.19,10.71,3.54,15.74,1a20.79,20.79,0,0,0,8.47-20.54c-1.15-5.24-5.93-4-5.66-1.43.52,3.8.39,5.26-.84,8.29-7,6.44-14.22-2.76-13.38-2.84s3.47-1.28,3.55-2.31a3.32,3.32,0,0,0-.73-3.07c-4.66-4-6.61-8.8-4.78-14,2.58-6.22,7.49-8.24,13.43-7.89,7,.42,9.49,2.57,12.81,7.75.25.38,1.07,2.49,1.61,1.46-.43-3.18-1.67-6.29.38-9.43,2.72-4.31,5.92-3.8,10.45-4.82a59.74,59.74,0,0,0,12.08-4.39l1.72-.76c1.4-1,2.75-1,2.17,1.3-.06.09-33.63,90.73-33.63,90.73Z"/>
    <path class="a" d="M216,432a215.71,215.71,0,0,0,176-90.77,198.05,198.05,0,0,0-352,0A215.71,215.71,0,0,0,216,432Z"/>
</svg>