<svg xmlns="http://www.w3.org/2000/svg" viewBox="0 0 432 432"><defs><style>.a{fill:#f5f4f4;}</style></defs><path class="a" d="M216,18a198.05,198.05,0,0,1,77.06,380.45A198.06,198.06,0,0,1,138.94,33.55,196.67,196.67,0,0,1,216,18m0-18C96.71,0,0,96.71,0,216S96.71,432,216,432s216-96.71,216-216S335.29,0,216,0Z"/><path class="a" d="M276,159.26l-8.86,73.83q-.57,4.08-.78,7.8t-.21,7q0,10.54,8.72,10.55,12.24,0,22.22-17.3,9.84-17,9.84-38.81,0-34.59-24.18-56.67-24-22.36-61.46-22.36-39.09,0-65.81,26.72t-26.58,65.81a100.71,100.71,0,0,0,9.57,42.47,86.83,86.83,0,0,0,27.14,32.2q23.34,16.88,58.5,16.88,32.9,0,68.9-16.74l2.11-1.12,7.31,20.25-1.68.84a174,174,0,0,1-76.5,17.72q-44,0-73.69-21.24a107.4,107.4,0,0,1-34-39.51q-12.11-25.32-12.1-51.47,0-47.67,33.61-80t83-32.34q45.42,0,76.08,27.84,30.51,27.57,30.52,69,0,32.07-16.6,55-16.74,23.19-39.23,23.2-18,0-24.47-17Q230,279.5,208.76,279.49q-23.2,0-38.67-16.73-15.19-16.59-15.19-42.33,0-27.7,17-45.56,17-18.28,42.75-18.28,23.63,0,38.11,18.28l2-15.61Zm-28.69,54.28q0-13.08-8.86-21.8A31,31,0,0,0,216.21,183,28.65,28.65,0,0,0,193,194q-9.15,10.83-9.14,27.71,0,14.63,7.31,24T210,255.16q14.78,0,26-12.51A42.2,42.2,0,0,0,247.29,213.54Z"/></svg>