<svg xmlns="http://www.w3.org/2000/svg" viewBox="0 0 432 432">
    <defs>
        <style>.a{fill:#151414;}</style>
    </defs>
    <path class="a"
          d="M176.9,181.22c-12.31,0-22,10.8-22,24s9.94,24,22,24c12.32,0,22-10.8,22-24C199.15,192,189.22,181.22,176.9,181.22Z"/>
    <ellipse class="a" cx="255.74" cy="205.2" rx="22.03" ry="23.98"/>
    <path class="a"
          d="M360.72,0H71.28A44.39,44.39,0,0,0,27,44.5v292A44.38,44.38,0,0,0,71.28,381H316.22l-11.44-40,27.64,25.71L358.56,391,405,432V44.5A44.39,44.39,0,0,0,360.72,0ZM277.34,282.1s-7.77-9.29-14.25-17.5c28.29-8,39.09-25.7,39.09-25.7a123.62,123.62,0,0,1-24.84,12.74A141.94,141.94,0,0,1,246,260.93a151.11,151.11,0,0,1-55.94-.22,180.32,180.32,0,0,1-31.75-9.29,126.42,126.42,0,0,1-15.77-7.34c-.65-.43-1.3-.65-1.94-1.08a3,3,0,0,1-.87-.65c-3.89-2.16-6.05-3.67-6.05-3.67s10.37,17.28,37.8,25.49C165,272.38,157,282.1,157,282.1c-47.73-1.52-65.88-32.84-65.88-32.84,0-69.55,31.11-125.92,31.11-125.92C153.36,100,183,100.66,183,100.66l2.16,2.59c-38.88,11.23-56.81,28.29-56.81,28.29s4.76-2.59,12.75-6.26c23.11-10.15,41.47-13,49-13.61a22,22,0,0,1,3.67-.43,182.55,182.55,0,0,1,43.63-.43,176,176,0,0,1,65,20.73s-17.06-16.2-53.78-27.43l3-3.45s29.59-.65,60.7,22.68c0,0,31.1,56.37,31.1,125.92C343.44,249.26,325.08,280.58,277.34,282.1Z"/>
</svg>