<svg xmlns="http://www.w3.org/2000/svg" viewBox="0 0 432 432"><defs><style>.a{fill:#151414;}</style></defs><path class="a" d="M144,432H288A144,144,0,0,0,430.78,306.79l-121.26-70L234,280.39l-18,10.39-18-10.39-75.52-43.61-121.26,70A144,144,0,0,0,144,432Z"/><path class="a" d="M288,0H144A144,144,0,0,0,1.22,125.21L123,195.5l93,53.71,93-53.71,121.75-70.29A144,144,0,0,0,288,0Z"/><polygon class="a" points="333.52 222.93 432 279.78 432 166.07 333.52 222.93"/><polygon class="a" points="98.48 222.93 0 166.07 0 279.78 98.48 222.93"/></svg>