<svg xmlns="http://www.w3.org/2000/svg" viewBox="0 0 432 432">
    <defs>
        <style>.a{fill:#151414;}</style>
    </defs>
    <path class="a"
          d="M216,40.16c57.27,0,64.05.22,86.67,1.25,20.91,1,32.27,4.45,39.83,7.39a66.54,66.54,0,0,1,24.66,16,66.54,66.54,0,0,1,16,24.66c2.94,7.56,6.43,18.92,7.39,39.83,1,22.62,1.25,29.4,1.25,86.67s-.22,64.05-1.25,86.67c-1,20.91-4.45,32.27-7.39,39.83a71,71,0,0,1-40.7,40.7c-7.56,2.94-18.92,6.43-39.83,7.39-22.61,1-29.4,1.25-86.67,1.25s-64.06-.22-86.67-1.25c-20.91-1-32.27-4.45-39.83-7.39a66.54,66.54,0,0,1-24.66-16,66.54,66.54,0,0,1-16-24.66c-2.94-7.56-6.43-18.92-7.39-39.83-1-22.62-1.25-29.4-1.25-86.67s.22-64.05,1.25-86.67c1-20.91,4.45-32.27,7.39-39.83a66.54,66.54,0,0,1,16-24.66,66.54,66.54,0,0,1,24.66-16c7.56-2.94,18.92-6.43,39.83-7.39,22.62-1,29.4-1.25,86.67-1.25m0-38.65c-58.25,0-65.55.25-88.43,1.3s-38.42,4.66-52.07,10a105.23,105.23,0,0,0-38,24.73,105.23,105.23,0,0,0-24.73,38c-5.31,13.65-8.93,29.24-10,52.07S1.51,157.75,1.51,216s.25,65.55,1.3,88.43,4.66,38.42,10,52.07a105.23,105.23,0,0,0,24.73,38,105.23,105.23,0,0,0,38,24.73c13.65,5.31,29.24,8.93,52.07,10s30.18,1.3,88.43,1.3,65.55-.25,88.43-1.3,38.42-4.66,52.07-10a109.58,109.58,0,0,0,62.72-62.72c5.31-13.65,8.93-29.24,10-52.07s1.3-30.18,1.3-88.43-.25-65.55-1.3-88.43-4.66-38.42-10-52.07a105.23,105.23,0,0,0-24.73-38,105.23,105.23,0,0,0-38-24.73c-13.65-5.31-29.24-8.93-52.07-10S274.25,1.51,216,1.51Z"/>
    <path class="a"
          d="M216,105.86A110.14,110.14,0,1,0,326.14,216,110.14,110.14,0,0,0,216,105.86Zm0,181.63A71.5,71.5,0,1,1,287.5,216,71.49,71.49,0,0,1,216,287.49Z"/>
    <circle class="a" cx="330.49" cy="101.51" r="25.74"/>
</svg>