<svg xmlns="http://www.w3.org/2000/svg" viewBox="0 0 432 432">
    <defs>
        <style>.a{fill:#f5f4f4;}</style>
    </defs>
    <path class="a"
          d="M216,18a198.06,198.06,0,0,1,77.07,380.45A198.06,198.06,0,0,1,138.93,33.55,196.76,196.76,0,0,1,216,18m0-18C96.71,0,0,96.71,0,216S96.71,432,216,432s216-96.71,216-216S335.29,0,216,0Z"/>
    <rect class="a" x="192" y="120" width="48" height="192" rx="6"/>
    <rect class="a" x="270.52" y="119.13" width="48" height="192" rx="6"
          transform="translate(-51.98 101.29) rotate(-17.96)"/>
    <rect class="a" x="120" y="120" width="48" height="192" rx="6"/>
</svg>