<svg xmlns="http://www.w3.org/2000/svg" viewBox="0 0 432 432">
    <defs>
        <style>.a{fill:#f5f4f4;}</style>
    </defs>
    <path class="a"
          d="M288,0H144A144,144,0,0,0,0,144V288A144,144,0,0,0,144,432H288A144,144,0,0,0,432,288V144A144,144,0,0,0,288,0ZM144,340a8,8,0,0,1-8,8H80a8,8,0,0,1-8-8V308a8,8,0,0,1,8-8h56a8,8,0,0,1,8,8Zm0-216a8,8,0,0,1-8,8H80a8,8,0,0,1-8-8V92a8,8,0,0,1,8-8h56a8,8,0,0,1,8,8ZM252,340a8,8,0,0,1-8,8H188a8,8,0,0,1-8-8V308a8,8,0,0,1,8-8h56a8,8,0,0,1,8,8Zm0-216a8,8,0,0,1-8,8H188a8,8,0,0,1-8-8V92a8,8,0,0,1,8-8h56a8,8,0,0,1,8,8ZM360,340a8,8,0,0,1-8,8H296a8,8,0,0,1-8-8V308a8,8,0,0,1,8-8h56a8,8,0,0,1,8,8Zm0-216a8,8,0,0,1-8,8H296a8,8,0,0,1-8-8V92a8,8,0,0,1,8-8h56a8,8,0,0,1,8,8Z"/>
</svg>