<svg xmlns="http://www.w3.org/2000/svg" viewBox="0 0 432 432"><defs><style>.a{fill:#f5f4f4;}</style></defs><path class="a" d="M319.58,262.77l-17,72.48h-186l.06-9.28,113.92-101.3L112.42,103.17l.07-6.41H298.87l9.69,62.46H296.2q-13.36-28.72-20.37-35.4-11.7-11.7-38.08-11.69H167.6l98.53,100.21-101.2,91.18h91.19q24,0,33.73-9.69,4.68-4.66,17.71-31.06Z"/><path class="a" d="M318.47,28.5q0,6.24-6,12t-12.25,5.79q-8,0-17.37-13.14T265.47,20q-11.13,0-19.15,21.38a140.49,140.49,0,0,0-6.68,31.17q-1.33,11.14-2.67,60.13Q235.64,155,233.85,200q-3.12,97.1-7.57,123.81-12.48,82.38-51.66,102-12,6.23-32.07,6.23a31,31,0,0,1-19.82-7.35q-9.14-7.35-9.13-18,0-7.58,6-13.58t13.58-6q8.91,0,17.15,14.7t17.14,14.69q9.8,0,17.37-19.59A155.1,155.1,0,0,0,192,368.31q2.67-19.59,3.56-53.88Q199.1,182.15,210.25,102,224.05,0,286,0,318.47,0,318.47,28.5Z"/></svg>